<svg xmlns="http://www.w3.org/2000/svg" width="171" height="144.088" viewBox="0 0 171 144.088">
  <g id="icon" transform="translate(-2.786 -1.565)">
    <path id="Path_7" data-name="Path 7" d="M357.493,185.3l-.023-19.851" transform="translate(-239.374 -110.605)" fill="none" stroke="#f0dbee" stroke-width="2"/>
    <path id="Path_8" data-name="Path 8" d="M125.589,1.586c18.511.046,30.114-.072,45.105.007a20.968,20.968,0,0,1,2.832.179.184.184,0,0,1,.172.2q.114,5.855.075,11.613a7.737,7.737,0,0,1-.065.962.418.418,0,0,1-.462.4q-26.672.007-52.589-.013a34.077,34.077,0,0,0-6.021.4,24.729,24.729,0,0,0-7.568,2.679,27.924,27.924,0,0,0-6.889,5.367c-2.409,2.568-5.273,5-8.814,5.423a29.117,29.117,0,0,1-5.1.068,8.483,8.483,0,0,1-4.07-1.177,14.935,14.935,0,0,1-2.955-2.656c-4.038-4.516-8.979-8.108-14.828-9.558a16.527,16.527,0,0,0-3.03-.452c-1.352-.078-2.689-.228-4.044-.224q-28.073.007-53.207.036a6.767,6.767,0,0,1-1.04-.085.293.293,0,0,1-.247-.286Q2.722,8.482,2.862,2a.192.192,0,0,1,.172-.2,8.526,8.526,0,0,1,1.713-.166q23.768-.033,47.911.026a51.488,51.488,0,0,1,5.488.358,38.163,38.163,0,0,1,5.241.943,45.685,45.685,0,0,1,8.03,2.77,42.37,42.37,0,0,1,9.272,5.767q3.176,2.676,6.33,5.728a6.447,6.447,0,0,0,1.557,1.109.689.689,0,0,0,.731-.072c1.508-1.167,2.806-2.6,4.265-3.817,2.042-1.7,3.879-3.537,6.125-5.078a43.18,43.18,0,0,1,18.4-7.247A55.415,55.415,0,0,1,125.589,1.586Z" fill="#fff"/>
    <path id="Path_9" data-name="Path 9" d="M67.42,100.4A26.98,26.98,0,0,1,74.3,105.64,21.332,21.332,0,0,1,78.129,111a24.5,24.5,0,0,1,2.588,11.011,23.885,23.885,0,0,1-5.449,15.052,18.826,18.826,0,0,1-2.328,2.383,28.962,28.962,0,0,1-3.326,2.741,37.868,37.868,0,0,1-10.192,4.568,56.5,56.5,0,0,1-5.722,1.112,33.529,33.529,0,0,1-4.561.468q-22.53.085-45.616.023a.445.445,0,0,1-.5-.5l.055-87.466a.131.131,0,0,1,.146-.15q.787-.007,1.58-.007,22.39-.026,42.67-.13c6.154-.033,12.946,1.343,17.813,4.971a30.881,30.881,0,0,1,5.085,5,23.12,23.12,0,0,1,4.158,8.778,11.81,11.81,0,0,1,.579,3.732c-.065,1.456.026,2.874-.172,4.3q-.28,1.983-.436,2.568a24.153,24.153,0,0,1-2.178,5.059A12.041,12.041,0,0,1,70.876,96.6a15.1,15.1,0,0,1-3.459,3.469.189.189,0,0,0,0,.332ZM49.1,73.838q-6.177-.12-12.022-.026a.093.093,0,0,0-.091.091q.01,7.25,0,14.688c0,1.417.5,3.758,2.364,3.771q3.752.029,7.721,0c3.31-.02,7.217-1.385,9.139-4.265a9.919,9.919,0,0,0,1.32-6.476A7.639,7.639,0,0,0,53.72,75.3,9.046,9.046,0,0,0,49.1,73.838Zm4.356,60.1a16.432,16.432,0,0,0,11.288-4.685c1.6-1.574,2.328-4.386,2.653-6.479a10.283,10.283,0,0,0-6.574-11.4,17.9,17.9,0,0,0-5.241-.52q-12.113.055-23.121.013a.282.282,0,0,0-.319.319l.059,22.273a.426.426,0,0,0,.478.481Q43.4,133.992,53.457,133.933Z" transform="translate(-0.158 -39.504)" fill="#fff"/>
    <path id="Path_10" data-name="Path 10" d="M357.493,114.345l-.023-19.851q.774-.914,1.391-1.73.556-.738,1.144-1.391c1.661-1.847,2.8-4.288,4.2-6.362q1.72-2.549,3.326-5.166,1.382-2.253,2.9-4.594c1.333-2.058,2.52-4.145,3.846-6.144,1.863-2.812,3.592-5.514,5.231-8.306a.977.977,0,0,1,.845-.484q15.576-.007,30.823.01.81,0,1.6.081a.331.331,0,0,1,.332.358q.068,1.934.052,4.038a1.693,1.693,0,0,1-.322,1.011q-1.141,1.583-2.211,3.16-4.5,6.639-8.68,12.624-2.464,3.531-4.711,6.947-1.843,2.806-3.644,5.387-3.31,4.737-6.258,9.389a11.8,11.8,0,0,0-.842,1.58.28.28,0,0,0,.029.293q16.98,23.944,26.268,38.044a2.83,2.83,0,0,1,.351,1.544c0,1.128.055,2.25-.033,3.362a.444.444,0,0,1-.442.41q-15.586,0-32.2-.016c-1.112,0-1.369-.683-2.016-1.707q-5.059-8.007-9.763-15.244c-1.014-1.561-1.882-3.193-2.929-4.7-1.008-1.453-1.788-2.968-2.776-4.418-.745-1.083-1.333-2.233-2.11-3.3Q359.164,116.845,357.493,114.345Z" transform="translate(-239.374 -39.649)" fill="#fff"/>
    <path id="Path_11" data-name="Path 11" d="M301.7,95.375l.023,19.851-.15,33.57a.387.387,0,0,1-.114.28,1.815,1.815,0,0,1-.624.413,23.186,23.186,0,0,1-2.682.923c-1.681.458-3.264,1.115-4.89,1.72s-3.036,1.5-4.594,2.211a15.178,15.178,0,0,0-2.269,1.294q-2.919,2-5.361,3.862a39.753,39.753,0,0,0-5.975,5.858q-.179.211-.179-.065c-.091-13.274.016-26.867-.026-40.557q-.085-25.088.153-46.971c.007-.764-.143-1.746.741-2.168a22.97,22.97,0,0,1,2.3-.953,30.031,30.031,0,0,0,8.417-4.035c1.782-1.356,3.144-3.147,4.8-4.594a18.06,18.06,0,0,1,9.867-4.389q.481-.062.484.426Z" transform="translate(-183.609 -40.53)" fill="#e0b7dd"/>
    <path id="Path_12" data-name="Path 12" d="M4.687,350.424c14.259-.046,29.377-.114,44.5-.072q1.161,0,4.363.358,2.4.263,4.223.64a40.781,40.781,0,0,1,12.77,4.776,40.448,40.448,0,0,1,6.2,4.675c2.12,1.905,3.944,4.217,5.871,6.3.862.933,1.554,2.051,2.344,3.059a1.778,1.778,0,0,0,1.378.624q2.334.026,4.551-.055A1.3,1.3,0,0,0,91.9,370a46.981,46.981,0,0,1,11.011-12.1,25.725,25.725,0,0,1,5.12-3.189q1.769-.81,3.521-1.626c2.487-1.154,5.033-1.411,7.614-2.055a25.629,25.629,0,0,1,6.118-.653q23.476-.033,48.311-.033a.474.474,0,0,1,.536.536l.013,14.37a.313.313,0,0,1-.354.354c-18.112-.026-37.095-.267-54.341-.146a19.619,19.619,0,0,0-10.839,2.962,25.926,25.926,0,0,0-4.834,3.927,71.962,71.962,0,0,0-6.457,7.868,1.858,1.858,0,0,1-1.59.8q-7.767.055-14.981-.049a1.459,1.459,0,0,1-1.193-.523q-2.263-2.711-4.314-5.28a33.267,33.267,0,0,0-4.343-4.668,23.432,23.432,0,0,0-7.188-4.064,10.659,10.659,0,0,0-1.96-.5,20.86,20.86,0,0,0-2.832-.348q-6.775-.137-13.511-.088-20.228.146-41.448-.12a.5.5,0,0,1-.553-.549q-.153-6.847,0-14.152a.189.189,0,0,1,.169-.185A10.408,10.408,0,0,1,4.687,350.424Z" transform="translate(-0.365 -235.386)" fill="#fff"/>
  </g>
</svg>
